PathFileType  4	(X/Y/Z) C:\Users\antoi\Documents\MyRepositories\mobilecap\ResultsAnalysis
DataRate	CameraRate	NumFrames	NumMarkers	Units	OrigDataRate	OrigDataStartFrame	OrigNumFrames
100.0	100.0	4	51	mm	100.0	18	137
Frame#	Time	r_knee			r_shank_antsup			r_ankle			r_calc			r_5meta			r_toe			L_knee			L_shank_antsup			L_ankle			L_calc			L_5meta			L_toe			r_sh2			r_sh3			r_sh4			L_sh2			L_sh3			r_thigh1			r_thigh2			r_thigh3			r_thigh4			r_thigh5			L_thigh1			L_thigh2			L_thigh3			L_thigh4			r.ASIS			r.PSIS			L.ASIS			L.PSIS			C7			R_Shoulder			L_Shoulder			R_Sternum			L_Sternum			R_humerus			R_elbow_med			R_elbow_lat			R_forearm			R_wrist_radius			R_wrist_ulna			L_humerus			L_elbow_med			L_elbow_lat			L_forearm			L_wrist_radius			L_wrist_ulna			R_HJC			L_HJC			R_HJC_reg			L_HJC_reg			
		X1	Y1	Z1	X2	Y2	Z2	X3	Y3	Z3	X4	Y4	Z4	X5	Y5	Z5	X6	Y6	Z6	X7	Y7	Z7	X8	Y8	Z8	X9	Y9	Z9	X10	Y10	Z10	X11	Y11	Z11	X12	Y12	Z12	X13	Y13	Z13	X14	Y14	Z14	X15	Y15	Z15	X16	Y16	Z16	X17	Y17	Z17	X18	Y18	Z18	X19	Y19	Z19	X20	Y20	Z20	X21	Y21	Z21	X22	Y22	Z22	X23	Y23	Z23	X24	Y24	Z24	X25	Y25	Z25	X26	Y26	Z26	X27	Y27	Z27	X28	Y28	Z28	X29	Y29	Z29	X30	Y30	Z30	X31	Y31	Z31	X32	Y32	Z32	X33	Y33	Z33	X34	Y34	Z34	X35	Y35	Z35	X36	Y36	Z36	X37	Y37	Z37	X38	Y38	Z38	X39	Y39	Z39	X40	Y40	Z40	X41	Y41	Z41	X42	Y42	Z42	X43	Y43	Z43	X44	Y44	Z44	X45	Y45	Z45	X46	Y46	Z46	X47	Y47	Z47	X48	Y48	Z48	X49	Y49	Z49	X50	Y50	Z50	X51	Y51	Z51	

18	0.17000000	55.53405	535.13547	-89.15504	112.57088	455.49064	-111.99248	131.08067	116.39304	-145.80120	55.86956	72.42316	-184.60701	262.29356	56.79942	-128.16874	304.33889	101.60098	-194.85923	-246.48663	530.18771	-394.11099	-299.70273	456.63075	-411.14254	-529.82698	222.73083	-324.95311	-611.89628	247.46592	-260.21978	-517.60695	75.21904	-337.41634	-447.65259	63.45750	-282.42901	132.19931	345.83324	-93.27973	58.75548	453.78214	-59.30949	57.26420	337.11861	-54.85084	-359.88906	519.81407	-384.12064	-433.51795	424.41604	-367.84168	37.72121	865.36867	-74.29542	69.34875	759.18694	-85.38055	31.15312	721.13293	-42.96907	-59.12927	831.55466	-33.50446	-27.31152	721.36779	-47.49576	-114.40637	808.44465	-413.29747	-126.54261	668.58736	-407.46255	-223.84457	817.22317	-407.29026	-240.05814	681.18033	-402.57678	-11.29710	1064.93598	-106.36024	-202.06788	1055.43657	-129.55621	-65.15168	1051.63954	-353.98002	-227.58163	1058.14048	-235.57111	-141.52811	1614.67905	-225.08209	-78.90867	1544.84280	-60.51111	-143.73846	1533.00403	-390.30812	-38.12982	1499.94779	-204.55106	-52.78686	1495.40872	-260.62656	-113.10818	1391.18750	13.52524	-254.41307	1225.95718	-31.45289	-240.13544	1240.86979	50.59572	-240.51467	1069.28246	85.59622	-233.07952	970.65155	81.98560	-271.62262	991.41102	105.25851	-163.47719	1413.64987	-472.88795	-160.34200	1163.82704	-443.86007	-154.44543	1192.00803	-523.72988	-82.83336	1166.12507	-547.10082	66.82200	1069.44513	-559.03099	39.72195	1041.93583	-578.19355	-79.22157	940.14184	-105.59159	-132.77499	937.66782	-305.47217	-64.42899	965.86399	-132.54204	-103.60644	970.01399	-295.33149	
19	0.18000000	65.36185	535.96466	-86.56143	121.37268	455.12067	-109.82255	133.18195	115.69423	-144.91631	56.65207	73.11460	-184.43174	263.20800	53.56627	-127.27095	306.50533	97.54177	-193.70082	-219.21726	528.51268	-397.28612	-273.58766	457.14499	-414.28341	-510.06236	231.25231	-328.36688	-588.51436	264.18849	-264.16253	-509.88355	83.01885	-338.29866	-440.35977	66.32622	-284.16513	139.14854	345.12893	-91.41457	67.99703	454.32854	-56.67722	64.51920	337.66535	-52.00890	-331.60032	521.93093	-387.05567	-407.89585	428.83370	-370.59687	51.86584	867.09220	-71.48710	82.39711	760.66252	-82.32563	43.43574	722.82336	-40.70579	-45.64342	834.13593	-31.32652	-14.95099	723.59745	-45.36315	-94.16249	809.23762	-413.16850	-102.97838	669.08228	-409.18136	-203.71760	815.22755	-407.46200	-216.59999	678.75986	-404.50479	3.46094	1067.50728	-104.52029	-187.34670	1057.56717	-129.23489	-49.22079	1052.52385	-352.27563	-212.45833	1059.42220	-235.47413	-126.23186	1616.47211	-224.58018	-63.04767	1547.20007	-60.33316	-129.29876	1534.91551	-389.50194	-22.65392	1501.83030	-204.22003	-37.71158	1497.49090	-260.33969	-95.76767	1393.67344	14.34244	-236.49290	1227.50298	-29.15318	-221.44963	1242.40995	52.72000	-218.81834	1070.69049	87.52694	-209.73263	972.21406	83.69869	-248.52847	992.35990	107.33512	-150.26627	1415.30740	-471.64940	-151.26922	1165.68856	-441.06603	-145.32871	1193.25527	-521.23821	-74.36841	1166.09878	-545.02268	73.60094	1066.97580	-558.41825	45.81312	1039.66222	-576.67775	-64.54877	942.60848	-103.52110	-116.78151	938.72564	-303.72851	-49.35198	968.31191	-130.17644	-87.87120	971.15687	-293.13779	
20	0.19000000	74.79740	536.73086	-84.34521	129.79083	454.76392	-108.10590	135.04170	115.18993	-144.45503	57.24326	73.61788	-184.39536	263.92546	51.27445	-126.76720	308.22736	94.11558	-193.25278	-191.03551	526.87658	-400.33254	-246.12828	457.42777	-417.35451	-488.78998	239.55417	-331.80151	-563.42325	279.97294	-268.29444	-499.82410	91.46273	-339.44068	-431.02790	70.16307	-286.04845	145.72203	344.48292	-90.05414	76.80062	454.83649	-54.57438	71.33227	338.20722	-49.84768	-302.20269	523.67161	-390.28538	-380.94157	432.79843	-373.63637	65.61949	868.52417	-68.44488	95.00910	761.84166	-78.89026	55.08066	724.20106	-38.33171	-32.84240	836.46480	-29.55650	-3.18562	725.66676	-43.44678	-73.92065	810.07039	-412.91505	-79.10528	669.70473	-410.54608	-183.56825	813.09300	-407.63485	-192.88082	676.29012	-406.37021	17.91850	1069.94084	-102.70537	-172.96486	1059.54410	-128.88763	-33.70498	1053.32471	-350.57177	-197.76701	1060.53252	-235.34282	-111.04891	1618.19548	-224.13118	-47.25634	1549.34516	-60.25898	-114.96833	1536.76021	-388.82616	-7.25814	1503.61261	-204.03496	-22.73392	1499.47582	-260.21412	-78.42872	1395.95087	15.07232	-218.70411	1228.84683	-26.64738	-202.68310	1243.73064	54.99782	-196.77083	1071.94925	89.57515	-185.85530	973.67793	85.49421	-224.90735	993.11645	109.50994	-137.21841	1416.88780	-470.47554	-142.28361	1167.60241	-438.12795	-136.33354	1194.39623	-518.59803	-66.17155	1165.88896	-542.85842	79.81033	1063.99587	-557.70770	51.39003	1037.01530	-574.96056	-50.19732	944.93169	-101.48924	-101.17992	939.67085	-301.99026	-34.56564	970.66676	-127.79057	-72.56332	972.18208	-290.88344	
21	0.20000000	83.94958	537.42588	-82.67339	137.83328	454.41838	-106.97994	136.70538	114.86441	-144.40944	57.68602	73.95935	-184.46272	264.49513	49.80505	-126.63315	309.55361	91.23486	-193.47920	-162.07089	525.47616	-403.17060	-217.48779	457.52505	-420.25070	-466.18055	247.54823	-335.11728	-537.37723	294.19374	-272.44398	-486.72314	100.17626	-340.93902	-418.89472	74.97533	-288.00727	151.94108	343.88648	-89.31525	85.14122	455.30185	-53.15550	77.69846	338.74840	-48.54052	-271.90310	525.10996	-393.81216	-352.88960	436.38617	-376.98100	78.92751	869.60929	-65.27432	107.15183	762.65936	-75.24472	66.11237	725.23084	-35.88805	-20.66639	838.50727	-28.13181	8.01440	727.53833	-41.73973	-53.68577	811.02137	-412.47741	-54.97966	670.54730	-411.45750	-163.35071	810.95514	-407.74881	-168.91218	673.93182	-408.05382	32.10612	1072.17999	-100.97064	-158.88382	1061.38204	-128.47629	-18.62910	1054.07100	-348.90752	-183.47712	1061.47739	-235.12548	-95.98281	1619.85035	-223.74352	-31.57467	1551.25660	-60.28007	-100.73624	1538.49927	-388.30533	8.03864	1505.28673	-204.00523	-7.87148	1501.30172	-260.23745	-61.14803	1397.97400	15.67373	-201.02053	1229.90205	-23.98503	-183.84196	1244.77653	57.37933	-174.41674	1073.03795	91.71378	-161.49862	975.03527	87.35869	-200.78511	993.67268	111.74928	-124.37695	1418.34579	-469.37453	-133.28871	1169.51940	-435.07139	-127.42588	1195.37479	-515.81898	-58.22461	1165.47430	-540.63678	85.50138	1060.52503	-556.81857	56.47767	1034.00173	-573.04411	-36.13161	947.07598	-99.53983	-86.00715	940.52497	-300.28650	-20.09183	972.94712	-125.41651	-57.71883	973.09489	-288.58984	
